ffmpeg version 5.1.2-essentials_build-www.gyan.dev Copyright (c) 2000-2022 the FFmpeg developers
  built with gcc 12.1.0 (Rev2, Built by MSYS2 project)
  configuration: --enable-gpl --enable-version3 --enable-static --disable-w32threads --disable-autodetect --enable-fontconfig --enable-iconv --enable-gnutls --enable-libxml2 --enable-gmp --enable-lzma --enable-zlib --enable-libsrt --enable-libssh --enable-libzmq --enable-avisynth --enable-sdl2 --enable-libwebp --enable-libx264 --enable-libx265 --enable-libxvid --enable-libaom --enable-libopenjpeg --enable-libvpx --enable-libass --enable-libfreetype --enable-libfribidi --enable-libvidstab --enable-libvmaf --enable-libzimg --enable-amf --enable-cuda-llvm --enable-cuvid --enable-ffnvcodec --enable-nvdec --enable-nvenc --enable-d3d11va --enable-dxva2 --enable-libmfx --enable-libgme --enable-libopenmpt --enable-libopencore-amrwb --enable-libmp3lame --enable-libtheora --enable-libvo-amrwbenc --enable-libgsm --enable-libopencore-amrnb --enable-libopus --enable-libspeex --enable-libvorbis --enable-librubberband
  libavutil      57. 28.100 / 57. 28.100
  libavcodec     59. 37.100 / 59. 37.100
  libavformat    59. 27.100 / 59. 27.100
  libavdevice    59.  7.100 / 59.  7.100
  libavfilter     8. 44.100 /  8. 44.100
  libswscale      6.  7.100 /  6.  7.100
  libswresample   4.  7.100 /  4.  7.100
  libpostproc    56.  6.100 / 56.  6.100
Splitting the commandline.
Reading option '-v' ... matched as option 'v' (set logging level) with argument 'debug'.
Reading option '-nostdin' ... matched as option 'stdin' (enable or disable interaction on standard input) with argument 0.
Reading option '-progress' ... matched as option 'progress' (write program-readable progress information) with argument 'C:/Users/silva/AppData/Local/Temp/KritaFFmpegProgress.jegGWs'.
Reading option '-r' ... matched as option 'r' (set frame rate (Hz value, fraction or abbreviation)) with argument '24'.
Reading option '-start_number' ... matched as AVOption 'start_number' with argument '0'.
Reading option '-i' ... matched as input url with argument 'C:/Users/silva/OneDrive/Documentos/Desenhos/Krita Projects/Animações/frame%04d.png'.
Reading option '-vf' ... matched as option 'vf' (set video filters) with argument 'palettegen'.
Reading option '-y' ... matched as option 'y' (overwrite output files) with argument '1'.
Reading option 'C:/Users/silva/OneDrive/Documentos/Desenhos/Krita Projects/Animações/palette.png' ... matched as output url.
Finished splitting the commandline.
Parsing a group of options: global .
Applying option v (set logging level) with argument debug.
Applying option nostdin (enable or disable interaction on standard input) with argument 0.
Applying option progress (write program-readable progress information) with argument C:/Users/silva/AppData/Local/Temp/KritaFFmpegProgress.jegGWs.
[file @ 000001dec933ee80] Setting default whitelist 'file,crypto,data'
Applying option y (overwrite output files) with argument 1.
Successfully parsed a group of options.
Parsing a group of options: input url C:/Users/silva/OneDrive/Documentos/Desenhos/Krita Projects/Animações/frame%04d.png.
Applying option r (set frame rate (Hz value, fraction or abbreviation)) with argument 24.
Successfully parsed a group of options.
Opening an input file: C:/Users/silva/OneDrive/Documentos/Desenhos/Krita Projects/Animações/frame%04d.png.
[image2 @ 000001dec937f340] Opening 'C:/Users/silva/OneDrive/Documentos/Desenhos/Krita Projects/Animações/frame0000.png' for reading
[file @ 000001dec93828c0] Setting default whitelist 'file,crypto,data'
[AVIOContext @ 000001dec938aa80] Statistics: 617833 bytes read, 0 seeks
[image2 @ 000001dec937f340] Opening 'C:/Users/silva/OneDrive/Documentos/Desenhos/Krita Projects/Animações/frame0001.png' for reading
[file @ 000001dec9887000] Setting default whitelist 'file,crypto,data'
[AVIOContext @ 000001dec9887780] Statistics: 617833 bytes read, 0 seeks
[image2 @ 000001dec937f340] Opening 'C:/Users/silva/OneDrive/Documentos/Desenhos/Krita Projects/Animações/frame0002.png' for reading
[file @ 000001dec9887000] Setting default whitelist 'file,crypto,data'
[AVIOContext @ 000001dec991e6c0] Statistics: 617833 bytes read, 0 seeks
[image2 @ 000001dec937f340] Opening 'C:/Users/silva/OneDrive/Documentos/Desenhos/Krita Projects/Animações/frame0003.png' for reading
[file @ 000001dec9887000] Setting default whitelist 'file,crypto,data'
[AVIOContext @ 000001dec99b56c0] Statistics: 706110 bytes read, 0 seeks
[image2 @ 000001dec937f340] Opening 'C:/Users/silva/OneDrive/Documentos/Desenhos/Krita Projects/Animações/frame0004.png' for reading
[file @ 000001dec9887000] Setting default whitelist 'file,crypto,data'
[AVIOContext @ 000001dec99b5880] Statistics: 706110 bytes read, 0 seeks
[image2 @ 000001dec937f340] Opening 'C:/Users/silva/OneDrive/Documentos/Desenhos/Krita Projects/Animações/frame0005.png' for reading
[file @ 000001dec9887000] Setting default whitelist 'file,crypto,data'
[AVIOContext @ 000001dec99b5a80] Statistics: 706110 bytes read, 0 seeks
[image2 @ 000001dec937f340] Opening 'C:/Users/silva/OneDrive/Documentos/Desenhos/Krita Projects/Animações/frame0006.png' for reading
[file @ 000001dec9887000] Setting default whitelist 'file,crypto,data'
[AVIOContext @ 000001dec99b5c40] Statistics: 693843 bytes read, 0 seeks
[image2 @ 000001dec937f340] Opening 'C:/Users/silva/OneDrive/Documentos/Desenhos/Krita Projects/Animações/frame0007.png' for reading
[file @ 000001dec9887000] Setting default whitelist 'file,crypto,data'
[AVIOContext @ 000001dec99b5e40] Statistics: 693843 bytes read, 0 seeks
[image2 @ 000001dec937f340] Probe buffer size limit of 5000000 bytes reached
Input #0, image2, from 'C:/Users/silva/OneDrive/Documentos/Desenhos/Krita Projects/Animações/frame%04d.png':
  Duration: 00:00:00.96, start: 0.000000, bitrate: N/A
  Stream #0:0, 8, 1/25: Video: png, 1 reference frame, rgba(pc), 2640x2640 [SAR 11811:11811 DAR 1:1], 0/1, 25 fps, 25 tbr, 25 tbn
Successfully opened the file.
Parsing a group of options: output url C:/Users/silva/OneDrive/Documentos/Desenhos/Krita Projects/Animações/palette.png.
Applying option vf (set video filters) with argument palettegen.
Successfully parsed a group of options.
Opening an output file: C:/Users/silva/OneDrive/Documentos/Desenhos/Krita Projects/Animações/palette.png.
Successfully opened the file.
detected 4 logical cores
Stream mapping:
  Stream #0:0 -> #0:0 (png (native) -> png (native))
cur_dts is invalid st:0 (0) [init:0 i_done:0 finish:0] (this is harmless if it occurs once at the start per stream)
    Last message repeated 4 times
[graph 0 input from stream 0:0 @ 000001dec99edc40] Setting 'video_size' to value '2640x2640'
[graph 0 input from stream 0:0 @ 000001dec99edc40] Setting 'pix_fmt' to value '26'
[graph 0 input from stream 0:0 @ 000001dec99edc40] Setting 'time_base' to value '1/24'
[graph 0 input from stream 0:0 @ 000001dec99edc40] Setting 'pixel_aspect' to value '11811/11811'
[graph 0 input from stream 0:0 @ 000001dec99edc40] Setting 'frame_rate' to value '24/1'
[graph 0 input from stream 0:0 @ 000001dec99edc40] w:2640 h:2640 pixfmt:rgba tb:1/24 fr:24/1 sar:11811/11811
[format @ 000001dec99ee180] Setting 'pix_fmts' to value 'rgb24|rgba|rgb48be|rgba64be|pal8|gray|ya8|gray16be|ya16be|monob'
[auto_scale_0 @ 000001dec99ee6c0] w:iw h:ih flags:'' interl:0
[Parsed_palettegen_0 @ 000001dec99eda80] auto-inserting filter 'auto_scale_0' between the filter 'graph 0 input from stream 0:0' and the filter 'Parsed_palettegen_0'
[auto_scale_1 @ 000001dec99ee340] w:iw h:ih flags:'' interl:0
[format @ 000001dec99ee180] auto-inserting filter 'auto_scale_1' between the filter 'Parsed_palettegen_0' and the filter 'format'
[AVFilterGraph @ 000001dec99b58c0] query_formats: 4 queried, 3 merged, 2 already done, 0 delayed
[auto_scale_1 @ 000001dec99ee340] picking rgba out of 10 ref:bgra alpha:1
[swscaler @ 000001dec93ea340] [swscaler @ 000001dec93fc340] Forcing full internal H chroma due to input having non subsampled chroma
[swscaler @ 000001dec93ea340] [swscaler @ 000001decb81f480] Forcing full internal H chroma due to input having non subsampled chroma
[swscaler @ 000001dec93ea340] [swscaler @ 000001decb83be40] Forcing full internal H chroma due to input having non subsampled chroma
[swscaler @ 000001dec93ea340] [swscaler @ 000001decb864d00] Forcing full internal H chroma due to input having non subsampled chroma
[swscaler @ 000001dec93ea340] [swscaler @ 000001ded3352ac0] Forcing full internal H chroma due to input having non subsampled chroma
[auto_scale_0 @ 000001dec99ee6c0] w:2640 h:2640 fmt:rgba sar:11811/11811 -> w:2640 h:2640 fmt:bgra sar:1/1 flags:0x0
[swscaler @ 000001ded33c3040] [swscaler @ 000001ded33de280] Forcing full internal H chroma due to input having non subsampled chroma
[swscaler @ 000001ded33c3040] [swscaler @ 000001ded33eb240] Forcing full internal H chroma due to input having non subsampled chroma
[swscaler @ 000001ded33c3040] [swscaler @ 000001ded33f8200] Forcing full internal H chroma due to input having non subsampled chroma
[swscaler @ 000001ded33c3040] [swscaler @ 000001ded340b240] Forcing full internal H chroma due to input having non subsampled chroma
[swscaler @ 000001ded33c3040] [swscaler @ 000001ded341e240] Forcing full internal H chroma due to input having non subsampled chroma
[auto_scale_1 @ 000001dec99ee340] w:16 h:16 fmt:bgra sar:1/1 -> w:16 h:16 fmt:rgba sar:1/1 flags:0x0
[swscaler @ 000001dec93ea340] [swscaler @ 000001ded33500c0] Forcing full internal H chroma due to input having non subsampled chroma
[swscaler @ 000001dec93ea340] [swscaler @ 000001ded3370580] Forcing full internal H chroma due to input having non subsampled chroma
[swscaler @ 000001dec93ea340] [swscaler @ 000001decb7ebfc0] Forcing full internal H chroma due to input having non subsampled chroma
[swscaler @ 000001dec93ea340] [swscaler @ 000001decb84b440] Forcing full internal H chroma due to input having non subsampled chroma
[swscaler @ 000001dec93ea340] [swscaler @ 000001decb858400] Forcing full internal H chroma due to input having non subsampled chroma
[auto_scale_0 @ 000001dec99ee6c0] w:2640 h:2640 fmt:rgba sar:11811/11811 -> w:2640 h:2640 fmt:bgra sar:1/1 flags:0x0
[swscaler @ 000001dec93ea340] [swscaler @ 000001ded33500c0] Forcing full internal H chroma due to input having non subsampled chroma
[swscaler @ 000001dec93ea340] [swscaler @ 000001dec93fc340] Forcing full internal H chroma due to input having non subsampled chroma
[swscaler @ 000001dec93ea340] [swscaler @ 000001decb7ebfc0] Forcing full internal H chroma due to input having non subsampled chroma
[swscaler @ 000001dec93ea340] [swscaler @ 000001decb850740] Forcing full internal H chroma due to input having non subsampled chroma
[swscaler @ 000001dec93ea340] [swscaler @ 000001decb8124c0] Forcing full internal H chroma due to input having non subsampled chroma
[auto_scale_0 @ 000001dec99ee6c0] w:2640 h:2640 fmt:rgba sar:11811/11811 -> w:2640 h:2640 fmt:bgra sar:1/1 flags:0x0
[swscaler @ 000001dec93ea340] [swscaler @ 000001ded33500c0] Forcing full internal H chroma due to input having non subsampled chroma
[swscaler @ 000001dec93ea340] [swscaler @ 000001ded33b2040] Forcing full internal H chroma due to input having non subsampled chroma
[swscaler @ 000001dec93ea340] [swscaler @ 000001decb7ebfc0] Forcing full internal H chroma due to input having non subsampled chroma
[swscaler @ 000001dec93ea340] [swscaler @ 000001decb84b440] Forcing full internal H chroma due to input having non subsampled chroma
[swscaler @ 000001dec93ea340] [swscaler @ 000001decb858400] Forcing full internal H chroma due to input having non subsampled chroma
[auto_scale_0 @ 000001dec99ee6c0] w:2640 h:2640 fmt:rgba sar:11811/11811 -> w:2640 h:2640 fmt:bgra sar:1/1 flags:0x0
cur_dts is invalid st:0 (0) [init:0 i_done:0 finish:0] (this is harmless if it occurs once at the start per stream)
    Last message repeated 3 times
[image2 @ 000001dec937f340] Opening 'C:/Users/silva/OneDrive/Documentos/Desenhos/Krita Projects/Animações/frame0008.png' for reading
[file @ 000001dec99b5bc0] Setting default whitelist 'file,crypto,data'
[AVIOContext @ 000001dec93972c0] Statistics: 693843 bytes read, 0 seeks
cur_dts is invalid st:0 (0) [init:0 i_done:0 finish:0] (this is harmless if it occurs once at the start per stream)
[image2 @ 000001dec937f340] Opening 'C:/Users/silva/OneDrive/Documentos/Desenhos/Krita Projects/Animações/frame0009.png' for reading
[file @ 000001ded3522740] Setting default whitelist 'file,crypto,data'
[AVIOContext @ 000001decb86fd40] Statistics: 715751 bytes read, 0 seeks
cur_dts is invalid st:0 (0) [init:0 i_done:0 finish:0] (this is harmless if it occurs once at the start per stream)
[image2 @ 000001dec937f340] Opening 'C:/Users/silva/OneDrive/Documentos/Desenhos/Krita Projects/Animações/frame0010.png' for reading
[file @ 000001ded3521a80] Setting default whitelist 'file,crypto,data'
[AVIOContext @ 000001decb86f780] Statistics: 715751 bytes read, 0 seeks
cur_dts is invalid st:0 (0) [init:0 i_done:0 finish:0] (this is harmless if it occurs once at the start per stream)
[image2 @ 000001dec937f340] Opening 'C:/Users/silva/OneDrive/Documentos/Desenhos/Krita Projects/Animações/frame0011.png' for reading
[file @ 000001ded35221c0] Setting default whitelist 'file,crypto,data'
[AVIOContext @ 000001decb870180] Statistics: 715751 bytes read, 0 seeks
cur_dts is invalid st:0 (0) [init:0 i_done:0 finish:0] (this is harmless if it occurs once at the start per stream)
[image2 @ 000001dec937f340] Opening 'C:/Users/silva/OneDrive/Documentos/Desenhos/Krita Projects/Animações/frame0012.png' for reading
[file @ 000001ded35221c0] Setting default whitelist 'file,crypto,data'
[AVIOContext @ 000001decb86fbc0] Statistics: 673202 bytes read, 0 seeks
cur_dts is invalid st:0 (0) [init:0 i_done:0 finish:0] (this is harmless if it occurs once at the start per stream)
[image2 @ 000001dec937f340] Opening 'C:/Users/silva/OneDrive/Documentos/Desenhos/Krita Projects/Animações/frame0013.png' for reading
[file @ 000001ded3521a80] Setting default whitelist 'file,crypto,data'
[AVIOContext @ 000001decb86f480] Statistics: 673202 bytes read, 0 seeks
cur_dts is invalid st:0 (0) [init:0 i_done:0 finish:0] (this is harmless if it occurs once at the start per stream)
[image2 @ 000001dec937f340] Opening 'C:/Users/silva/OneDrive/Documentos/Desenhos/Krita Projects/Animações/frame0014.png' for reading
[file @ 000001ded3522840] Setting default whitelist 'file,crypto,data'
[AVIOContext @ 000001decb86f600] Statistics: 673202 bytes read, 0 seeks
cur_dts is invalid st:0 (0) [init:0 i_done:0 finish:0] (this is harmless if it occurs once at the start per stream)
[image2 @ 000001dec937f340] Opening 'C:/Users/silva/OneDrive/Documentos/Desenhos/Krita Projects/Animações/frame0015.png' for reading
[file @ 000001ded3522300] Setting default whitelist 'file,crypto,data'
[AVIOContext @ 000001decb86fa40] Statistics: 715751 bytes read, 0 seeks
cur_dts is invalid st:0 (0) [init:0 i_done:0 finish:0] (this is harmless if it occurs once at the start per stream)
[image2 @ 000001dec937f340] Opening 'C:/Users/silva/OneDrive/Documentos/Desenhos/Krita Projects/Animações/frame0016.png' for reading
[file @ 000001ded3521b80] Setting default whitelist 'file,crypto,data'
[AVIOContext @ 000001decb86f900] Statistics: 715751 bytes read, 0 seeks
cur_dts is invalid st:0 (0) [init:0 i_done:0 finish:0] (this is harmless if it occurs once at the start per stream)
[image2 @ 000001dec937f340] Opening 'C:/Users/silva/OneDrive/Documentos/Desenhos/Krita Projects/Animações/frame0017.png' for reading
[file @ 000001ded3522400] Setting default whitelist 'file,crypto,data'
[AVIOContext @ 000001decb86fd40] Statistics: 715751 bytes read, 0 seeks
cur_dts is invalid st:0 (0) [init:0 i_done:0 finish:0] (this is harmless if it occurs once at the start per stream)
[image2 @ 000001dec937f340] Opening 'C:/Users/silva/OneDrive/Documentos/Desenhos/Krita Projects/Animações/frame0018.png' for reading
[file @ 000001ded3521a80] Setting default whitelist 'file,crypto,data'
[AVIOContext @ 000001decb86f780] Statistics: 693843 bytes read, 0 seeks
cur_dts is invalid st:0 (0) [init:0 i_done:0 finish:0] (this is harmless if it occurs once at the start per stream)
[image2 @ 000001dec937f340] Opening 'C:/Users/silva/OneDrive/Documentos/Desenhos/Krita Projects/Animações/frame0019.png' for reading
[file @ 000001ded3521fc0] Setting default whitelist 'file,crypto,data'
[AVIOContext @ 000001decb86fd40] Statistics: 693843 bytes read, 0 seeks
cur_dts is invalid st:0 (0) [init:0 i_done:0 finish:0] (this is harmless if it occurs once at the start per stream)
[image2 @ 000001dec937f340] Opening 'C:/Users/silva/OneDrive/Documentos/Desenhos/Krita Projects/Animações/frame0020.png' for reading
[file @ 000001ded3521ec0] Setting default whitelist 'file,crypto,data'
[AVIOContext @ 000001decb870000] Statistics: 693843 bytes read, 0 seeks
cur_dts is invalid st:0 (0) [init:0 i_done:0 finish:0] (this is harmless if it occurs once at the start per stream)
[image2 @ 000001dec937f340] Opening 'C:/Users/silva/OneDrive/Documentos/Desenhos/Krita Projects/Animações/frame0021.png' for reading
[file @ 000001ded3522740] Setting default whitelist 'file,crypto,data'
[AVIOContext @ 000001decb86f600] Statistics: 706110 bytes read, 0 seeks
cur_dts is invalid st:0 (0) [init:0 i_done:0 finish:0] (this is harmless if it occurs once at the start per stream)
[image2 @ 000001dec937f340] Opening 'C:/Users/silva/OneDrive/Documentos/Desenhos/Krita Projects/Animações/frame0022.png' for reading
[file @ 000001ded3522600] Setting default whitelist 'file,crypto,data'
[AVIOContext @ 000001decb86f480] Statistics: 706110 bytes read, 0 seeks
cur_dts is invalid st:0 (0) [init:0 i_done:0 finish:0] (this is harmless if it occurs once at the start per stream)
[image2 @ 000001dec937f340] Opening 'C:/Users/silva/OneDrive/Documentos/Desenhos/Krita Projects/Animações/frame0023.png' for reading
[file @ 000001ded3521b80] Setting default whitelist 'file,crypto,data'
[AVIOContext @ 000001decb86f480] Statistics: 706110 bytes read, 0 seeks
cur_dts is invalid st:0 (0) [init:0 i_done:0 finish:0] (this is harmless if it occurs once at the start per stream)
    Last message repeated 4 times
[Parsed_palettegen_0 @ 000001dec99eda80] 255(+1) colors generated out of 256 colors; ratio=0.996094
cur_dts is invalid st:0 (0) [init:0 i_done:0 finish:0] (this is harmless if it occurs once at the start per stream)
Output #0, image2, to 'C:/Users/silva/OneDrive/Documentos/Desenhos/Krita Projects/Animações/palette.png':
  Metadata:
    encoder         : Lavf59.27.100
  Stream #0:0, 0, 1/24: Video: png, 1 reference frame, rgba(pc, gbr/unknown/unknown, progressive), 16x16 (0x0) [SAR 1:1 DAR 1:1], 0/1, q=2-31, 200 kb/s, 24 fps, 24 tbn
    Metadata:
      encoder         : Lavc59.37.100 png
Clipping frame in rate conversion by 0.000008
frame=    1 fps=0.3 q=0.0 size=N/A time=00:00:00.00 bitrate=N/A speed=   0x    cur_dts is invalid st:0 (0) [init:1 i_done:0 finish:0] (this is harmless if it occurs once at the start per stream)
[out_0_0 @ 000001dec99edfc0] EOF on sink link out_0_0:default.
No more output streams to write to, finishing.
[image2 @ 000001decb7e99c0] The specified filename 'C:/Users/silva/OneDrive/Documentos/Desenhos/Krita Projects/Animações/palette.png' does not contain an image sequence pattern or a pattern is invalid.
[image2 @ 000001decb7e99c0] Use a pattern such as %03d for an image sequence or use the -update option (with -frames:v 1 if needed) to write a single image.
[image2 @ 000001decb7e99c0] Opening 'C:/Users/silva/OneDrive/Documentos/Desenhos/Krita Projects/Animações/palette.png' for writing
[file @ 000001ded3521fc0] Setting default whitelist 'file,crypto,data'
[AVIOContext @ 000001decb86fd40] Statistics: 1032 bytes written, 0 seeks, 1 writeouts
frame=    1 fps=0.3 q=-0.0 Lsize=N/A time=00:00:00.04 bitrate=N/A speed=0.0121x    
[AVIOContext @ 000001dec937f040] Statistics: 348 bytes written, 0 seeks, 2 writeouts
video:1kB audio:0kB subtitle:0kB other streams:0kB global headers:0kB muxing overhead: unknown
Input file #0 (C:/Users/silva/OneDrive/Documentos/Desenhos/Krita Projects/Animações/frame%04d.png):
  Input stream #0:0 (video): 24 packets read (16567329 bytes); 24 frames decoded; 
  Total: 24 packets (16567329 bytes) demuxed
Output file #0 (C:/Users/silva/OneDrive/Documentos/Desenhos/Krita Projects/Animações/palette.png):
  Output stream #0:0 (video): 1 frames encoded; 1 packets muxed (1032 bytes); 
  Total: 1 packets (1032 bytes) muxed
24 frames successfully decoded, 0 decoding errors
